<svg xmlns="http://www.w3.org/2000/svg" width="606.926" height="728.142" viewBox="0 0 606.926 728.142">
  <path id="bg" d="M502,103.333c13.856,12.458,28,37.333,20,75.333s-12.062,60.152-3.667,79.667C534.75,296.5,685.881,362,685,466c-1,118-121.5,123-152.5,161-22.835,27.992-25,104-96,149-61.867,39.211-184.9,45.516-262.5-21.5C119,707,121.667,649,124.333,624.667s25.61-98.215-11.535-152.5c-44.132-64.5-39.007-114.087-23.78-166.919C103.5,255,142.871,176.437,241.333,121.333,350.333,60.333,465.667,70.667,502,103.333Z" transform="translate(-78.078 -77.149)" fill="#cbfcf2"/>
</svg>
